<?xml version="1.0" standalone="no"?>
<!DOCTYPE svg PUBLIC "-//W3C//DTD SVG 20010904//EN"
 "http://www.w3.org/TR/2001/REC-SVG-20010904/DTD/svg10.dtd">
<svg version="1.0" xmlns="http://www.w3.org/2000/svg"
 width="1080.000000pt" height="837.000000pt" viewBox="0 0 1080.000000 837.000000"
 preserveAspectRatio="xMidYMid meet">

<g transform="translate(0.000000,837.000000) scale(0.100000,-0.100000)"
fill="#ffffff" stroke="none">
<path d="M7193 8171 c-33 -9 -103 -56 -103 -70 0 -4 5 -12 12 -19 9 -9 9 -12
0 -12 -7 0 -12 5 -12 10 0 6 -4 10 -8 10 -5 0 -19 -57 -31 -127 -20 -117 -24
-151 -30 -238 -2 -26 -3 -27 -11 -10 -9 21 -9 21 -14 -55 -1 -8 -5 -21 -9 -27
-5 -7 -4 -13 0 -13 5 0 7 -16 5 -36 -3 -25 -7 -32 -13 -23 -5 9 -6 -2 -4 -26
4 -32 3 -36 -5 -20 -9 17 -10 15 -7 -12 2 -18 1 -33 -2 -33 -3 0 -7 -31 -9
-68 -2 -70 -19 -152 -21 -102 -1 34 -17 13 -24 -31 -3 -21 -1 -41 6 -48 7 -7
7 -11 1 -11 -6 0 -9 -13 -6 -28 2 -15 -1 -52 -7 -82 -6 -30 -20 -109 -31 -174
-30 -175 -39 -170 -15 8 3 17 -4 -3 -15 -44 -21 -83 -26 -135 -10 -110 7 11 8
5 5 -20 -2 -19 -7 -60 -11 -90 -8 -65 -15 -81 -24 -54 -6 16 -8 13 -14 -14 -5
-20 -3 -38 3 -46 6 -7 8 -23 5 -37 -5 -21 -13 -79 -16 -116 -2 -25 -18 -13
-19 15 l-1 27 -8 -25 c-11 -33 -12 -61 -2 -58 4 2 8 0 10 -4 1 -5 -1 -8 -4 -7
-7 1 -24 -22 -24 -33 0 -4 8 -5 18 -2 16 5 16 5 0 -9 -19 -15 -25 -32 -8 -22
11 7 9 -26 -6 -132 -7 -45 -23 -59 -25 -20 -1 13 -5 7 -10 -17 -6 -26 -6 -43
2 -52 8 -10 8 -33 -2 -85 -7 -40 -15 -67 -17 -61 -7 22 -20 12 -24 -18 -3 -17
-1 -33 4 -37 10 -6 4 -74 -14 -160 -6 -29 -15 -50 -19 -47 -4 2 -11 -1 -15 -7
-3 -6 0 -15 7 -20 8 -5 9 -9 3 -9 -7 0 -15 -7 -18 -16 -5 -12 -2 -15 10 -10
11 4 14 1 10 -12 -3 -9 -8 -38 -12 -64 -3 -26 -10 -45 -15 -42 -5 3 -7 10 -4
15 4 5 1 9 -4 9 -6 0 -11 -9 -11 -20 0 -11 5 -20 10 -20 6 0 10 -4 10 -10 0
-5 -7 -7 -15 -4 -8 4 -15 2 -15 -4 0 -6 6 -13 13 -15 10 -4 10 -6 0 -6 -7 -1
-13 -8 -13 -17 0 -8 5 -12 11 -8 8 4 9 -3 5 -22 -3 -16 -11 -59 -17 -96 -13
-80 -24 -91 -16 -15 5 42 4 46 -4 22 -5 -16 -11 -74 -12 -129 -2 -79 -6 -101
-20 -111 -19 -14 -23 -40 -7 -50 6 -4 8 -11 4 -16 -3 -5 -11 -6 -17 -2 -8 5
-8 2 1 -9 7 -8 10 -22 7 -29 -4 -12 -8 -42 -14 -116 -1 -7 -9 -10 -18 -7 -17
5 -17 5 -1 -8 16 -14 15 -63 -2 -53 -3 2 -8 -22 -8 -53 -1 -31 -9 -86 -17
-122 -14 -63 -14 -63 -10 -15 5 62 -10 31 -20 -41 -5 -38 -4 -46 5 -34 9 13
11 12 6 -5 -2 -11 -10 -53 -16 -94 -9 -52 -15 -69 -22 -60 -6 9 -7 3 -3 -20 5
-20 3 -31 -2 -28 -6 4 -8 -4 -6 -17 8 -39 -16 -170 -33 -183 -10 -7 -13 -19
-9 -32 3 -12 1 -56 -6 -99 -10 -62 -14 -72 -21 -52 -6 21 -7 20 -3 -7 2 -18 0
-56 -5 -85 -5 -29 -12 -80 -15 -113 -4 -33 -11 -63 -17 -66 -6 -4 -8 -14 -5
-22 3 -8 2 -18 -3 -23 -5 -5 -11 -37 -13 -71 -3 -34 -9 -68 -13 -74 -8 -13
-10 -24 -17 -89 -9 -84 -20 -147 -30 -170 -6 -14 -11 -41 -13 -60 -8 -99 -16
-160 -22 -160 -4 0 -7 -32 -7 -72 0 -91 20 -103 29 -18 4 33 12 60 18 60 13 0
4 -95 -10 -114 -5 -6 -7 -18 -3 -27 10 -25 80 -82 94 -76 13 5 60 168 79 272
8 50 50 228 68 295 5 19 22 96 36 170 62 320 62 318 89 420 13 47 33 130 45
185 13 55 31 136 42 180 11 44 31 136 44 205 13 68 38 183 55 255 76 329 89
384 103 450 13 64 53 237 111 490 13 55 31 138 40 185 9 47 27 132 40 190 13
58 31 141 40 185 17 83 45 209 94 430 16 72 39 182 51 245 12 63 30 147 40
185 10 39 21 90 25 115 4 25 16 77 26 115 11 39 26 111 34 160 9 50 24 126 35
171 30 125 71 323 79 385 6 46 4 59 -8 68 -9 7 -10 9 -2 5 9 -4 12 -2 9 7 -3
8 -9 14 -15 14 -12 0 -84 62 -82 72 0 4 -5 9 -12 12 -7 2 -9 -1 -4 -9 6 -10 3
-12 -10 -6 -32 12 -98 15 -132 7z m-13 -121 c0 -5 -4 -10 -10 -10 -5 0 -10 5
-10 10 0 6 5 10 10 10 6 0 10 -4 10 -10z m24 -77 c-7 -37 -18 -86 -23 -108
-10 -39 -11 -38 -6 15 3 30 7 64 9 75 2 11 6 37 10 58 4 21 11 35 15 33 4 -3
2 -36 -5 -73z m156 37 c0 -5 -4 -10 -10 -10 -5 0 -10 5 -10 10 0 6 5 10 10 10
6 0 10 -4 10 -10z m-220 -350 c-16 -84 -32 -155 -36 -159 -7 -7 0 44 27 184
22 113 29 138 35 132 2 -2 -9 -72 -26 -157z m-64 -316 c-14 -70 -29 -130 -32
-133 -7 -6 -6 3 21 154 19 106 27 135 32 118 3 -7 -7 -69 -21 -139z m-39 -186
c-12 -99 -31 -178 -40 -169 -5 5 -5 19 -1 32 4 13 7 27 6 31 -3 11 30 148 35
148 3 0 3 -19 0 -42z m-52 -279 c-26 -145 -47 -229 -56 -223 -5 3 -7 10 -4 15
3 5 15 54 26 110 23 121 40 191 45 186 2 -2 -3 -41 -11 -88z m-74 -360 c-11
-52 -24 -105 -30 -119 l-11 -25 5 28 c7 35 33 174 39 207 6 35 8 37 13 19 2
-9 -5 -58 -16 -110z m-62 -296 c-23 -113 -46 -233 -55 -293 -3 -19 -9 -48 -14
-65 -5 -16 -16 -70 -25 -120 -27 -146 -36 -185 -46 -185 -10 0 -9 6 27 180 14
69 29 143 33 165 49 249 97 463 99 446 2 -11 -7 -69 -19 -128z m-139 -698 c0
-13 -48 -244 -92 -445 -6 -30 -13 -47 -16 -37 -2 10 6 64 19 120 12 56 23 111
25 122 2 11 5 31 8 45 8 34 36 193 36 203 0 4 5 7 10 7 6 0 10 -7 10 -15z
m-155 -335 c3 -5 1 -10 -4 -10 -6 0 -11 5 -11 10 0 6 2 10 4 10 3 0 8 -4 11
-10z m41 -197 c-2 -16 -15 -84 -27 -153 -12 -69 -26 -129 -31 -135 -10 -11 -8
9 23 170 26 133 28 145 35 145 3 0 3 -12 0 -27z m-81 -415 c-9 -56 -21 -107
-26 -113 -7 -7 -9 3 -4 30 11 72 39 194 43 190 2 -2 -4 -50 -13 -107z m-25
-137 c0 -5 -14 -76 -31 -158 -17 -81 -35 -170 -40 -198 -17 -90 -41 -186 -46
-182 -5 6 17 123 46 247 11 47 22 112 26 145 4 32 9 63 12 69 6 8 9 27 12 69
1 17 21 25 21 8z m-140 -688 c-20 -101 -30 -135 -30 -102 0 15 24 150 36 209
5 21 10 28 12 18 2 -10 -6 -66 -18 -125z m-49 -239 c-6 -32 -11 -72 -11 -90 0
-18 -5 -36 -12 -40 -13 -8 -6 79 14 166 16 69 23 41 9 -36z m-21 -154 c0 -5
-4 -10 -10 -10 -5 0 -10 5 -10 10 0 6 5 10 10 10 6 0 10 -4 10 -10z m-10 -34
c0 -3 -4 -8 -10 -11 -5 -3 -10 -1 -10 4 0 6 5 11 10 11 6 0 10 -2 10 -4z m-16
-90 c-4 -31 -11 -56 -17 -56 -10 0 -3 92 9 111 12 20 14 2 8 -55z m-14 -82 c0
-8 -4 -12 -10 -9 -5 3 -10 10 -10 16 0 5 5 9 10 9 6 0 10 -7 10 -16z m-16 -86
c-8 -73 -24 -102 -24 -41 0 53 10 103 21 103 5 0 6 -28 3 -62z m-14 -108 c0
-5 -4 -10 -10 -10 -5 0 -10 5 -10 10 0 6 5 10 10 10 6 0 10 -4 10 -10z"/>
<path d="M7390 8146 c0 -4 9 -16 20 -28 11 -12 20 -17 20 -11 0 5 -9 18 -20
28 -11 10 -20 15 -20 11z"/>
<path d="M10035 7619 c-15 -23 80 -134 179 -209 47 -36 53 -44 41 -56 -18 -18
-31 -18 -16 0 10 12 4 20 -31 44 -48 33 -158 145 -177 180 -21 39 -30 33 -133
-92 -28 -33 -54 -63 -58 -66 -3 -3 -28 -32 -55 -65 -26 -33 -69 -85 -95 -115
-59 -67 -114 -133 -160 -190 -19 -23 -78 -93 -130 -154 -52 -61 -113 -134
-135 -161 -22 -28 -74 -90 -115 -140 -41 -49 -82 -98 -90 -109 -8 -10 -71 -85
-140 -166 -114 -135 -529 -636 -582 -704 -13 -16 -61 -75 -108 -131 -47 -57
-125 -153 -175 -215 -49 -62 -117 -144 -150 -182 -67 -79 -267 -323 -383 -468
-41 -52 -89 -111 -106 -131 -17 -19 -44 -52 -61 -73 -16 -21 -67 -83 -113
-139 -46 -56 -96 -118 -112 -137 -28 -35 -124 -151 -183 -223 -18 -21 -40 -48
-51 -60 -74 -87 -206 -257 -206 -266 0 -6 12 -11 28 -12 15 0 52 -2 82 -4 108
-7 122 -1 189 78 34 40 69 81 79 92 94 103 152 166 176 195 16 19 54 62 85 95
31 33 89 97 130 142 40 46 77 81 81 78 4 -3 7 1 6 9 -1 18 123 158 134 151 5
-3 12 0 16 6 4 8 3 9 -4 5 -24 -15 -11 7 30 50 22 24 45 41 49 38 4 -2 11 1
15 7 5 8 3 9 -6 4 -8 -5 -11 -3 -8 6 3 8 13 13 23 11 12 -2 16 1 12 11 -6 16
38 64 45 50 3 -4 3 -2 2 4 -2 7 2 16 9 20 7 5 20 21 30 36 10 15 22 25 27 22
5 -3 12 0 16 6 4 8 3 9 -4 5 -23 -14 -11 3 38 56 27 29 55 53 61 53 7 0 13 8
15 19 3 22 44 67 54 61 10 -6 32 20 23 28 -11 11 18 36 35 30 13 -3 14 -2 4 4
-15 11 -4 24 33 38 13 5 15 9 7 12 -10 4 71 100 279 328 20 22 48 54 62 70 15
17 27 25 27 20 0 -6 -34 -47 -75 -90 -41 -44 -75 -84 -75 -90 0 -5 17 8 36 30
20 22 60 65 90 96 50 52 68 79 44 64 -18 -11 -10 6 22 46 17 21 36 39 41 39 6
0 1 -10 -10 -22 -22 -25 -37 -48 -30 -48 2 0 90 96 195 214 106 118 197 220
204 228 7 7 47 51 88 98 41 47 78 87 81 90 3 3 25 28 49 55 37 43 176 198 220
245 8 8 28 31 44 50 15 19 51 60 80 90 48 51 195 218 341 385 33 38 69 79 80
90 35 35 110 131 87 111 -34 -30 -26 -3 10 30 17 16 28 23 24 17 -4 -7 -2 -13
4 -13 7 0 9 7 6 16 -4 10 8 30 35 57 23 23 39 34 35 24 -4 -11 -2 -16 5 -12 6
4 8 13 6 20 -3 7 14 35 38 62 58 66 65 106 32 176 -27 58 -90 121 -143 143
-39 17 -90 18 -99 3z m185 -296 c0 -5 -19 -28 -42 -53 -54 -59 -434 -486 -783
-880 -284 -321 -302 -340 -319 -340 -5 0 20 30 55 68 35 37 109 119 164 181
114 131 296 334 305 341 8 6 90 98 160 180 77 90 116 133 186 209 34 36 108
119 164 184 57 64 105 117 107 117 2 0 3 -3 3 -7z m-176 -265 c-10 -13 -57
-65 -104 -118 -47 -52 -114 -129 -150 -169 -140 -160 -244 -277 -259 -292 -41
-40 -196 -212 -216 -239 -12 -17 -33 -40 -46 -53 -13 -13 -43 -45 -67 -72 -56
-64 -167 -188 -214 -240 -21 -22 -38 -35 -38 -30 0 6 25 37 56 70 30 33 79 87
107 119 29 33 63 72 77 86 36 38 97 108 155 176 28 32 61 69 73 82 38 40 585
651 606 678 11 13 24 24 30 24 5 0 1 -10 -10 -22z m-984 -1045 c-12 -16 -59
-68 -103 -117 -102 -110 -130 -142 -187 -207 -74 -85 -162 -175 -159 -162 4
12 74 95 134 159 17 18 53 58 80 90 28 32 59 67 70 79 11 11 54 57 94 103 41
45 78 82 83 82 5 0 0 -12 -12 -27z m-120 -183 c0 -5 -44 -58 -97 -118 -54 -59
-115 -127 -135 -151 -21 -25 -40 -42 -42 -40 -3 3 41 57 97 121 56 64 118 134
137 156 39 45 40 46 40 32z m-340 -328 c0 -4 -19 -28 -42 -53 -24 -25 -73 -78
-110 -119 -37 -41 -69 -72 -72 -70 -2 3 16 28 40 55 189 210 184 205 184 187z
m-242 -269 c-13 -16 -238 -270 -294 -333 -152 -171 -223 -250 -244 -274 -14
-16 -36 -41 -50 -56 -14 -16 -50 -56 -82 -91 -31 -35 -67 -76 -80 -90 -12 -15
-66 -74 -118 -132 -52 -58 -96 -104 -98 -102 -3 2 13 24 34 48 61 70 523 587
573 642 25 28 73 81 106 120 33 38 74 84 90 102 17 18 59 66 95 107 36 42 69
75 74 76 5 0 2 -8 -6 -17z m-980 -1102 c-6 -15 -138 -154 -143 -149 -6 5 127
157 138 158 5 0 7 -4 5 -9z m-158 -176 c-7 -9 -15 -13 -17 -11 -7 7 7 26 19
26 6 0 6 -6 -2 -15z m-45 -55 c-10 -11 -20 -18 -23 -15 -3 3 3 14 13 25 10 11
20 18 23 15 3 -3 -3 -14 -13 -25z m-55 -60 c-12 -16 -26 -30 -31 -30 -6 0 -1
14 11 30 12 17 26 30 31 30 6 0 1 -13 -11 -30z m-60 -60 c0 -5 -5 -10 -11 -10
-5 0 -7 5 -4 10 3 6 8 10 11 10 2 0 4 -4 4 -10z m-30 -45 c-7 -9 -15 -13 -18
-10 -3 2 1 11 8 20 7 9 15 13 18 10 3 -2 -1 -11 -8 -20z m-80 -90 c-7 -9 -15
-13 -17 -11 -7 7 7 26 19 26 6 0 6 -6 -2 -15z"/>
<path d="M10159 7183 c-13 -16 -12 -17 4 -4 9 7 17 15 17 17 0 8 -8 3 -21 -13z"/>
<path d="M6874 7076 c-3 -21 -4 -39 -1 -42 3 -4 9 10 13 30 3 21 4 39 1 42 -3
4 -9 -10 -13 -30z"/>
<path d="M6862 6990 c0 -14 2 -19 5 -12 2 6 2 18 0 25 -3 6 -5 1 -5 -13z"/>
<path d="M6811 6724 c0 -11 3 -14 6 -6 3 7 2 16 -1 19 -3 4 -6 -2 -5 -13z"/>
<path d="M965 6138 c-25 -237 -43 -301 -106 -372 -41 -48 -97 -72 -209 -91
-124 -21 -143 -25 -138 -30 2 -2 56 -13 120 -24 65 -11 133 -27 153 -37 50
-23 117 -102 137 -160 14 -40 48 -265 48 -323 0 -8 3 -11 7 -8 3 4 14 74 24
156 18 157 35 211 83 269 48 55 101 79 231 102 66 12 121 23 124 25 6 6 -10
10 -142 33 -136 24 -178 46 -227 120 -41 62 -57 120 -71 264 -7 68 -15 127
-19 131 -5 5 -11 -20 -15 -55z"/>
<path d="M6712 6180 c0 -14 2 -19 5 -12 2 6 2 18 0 25 -3 6 -5 1 -5 -13z"/>
<path d="M6681 6024 c0 -11 3 -14 6 -6 3 7 2 16 -1 19 -3 4 -6 -2 -5 -13z"/>
<path d="M6631 5733 c0 -6 -4 -20 -7 -30 -5 -14 -4 -15 5 -7 7 7 11 20 8 30
-3 11 -5 14 -6 7z"/>
<path d="M1400 5511 c0 -5 6 -40 14 -78 31 -153 41 -282 41 -543 -1 -256 -13
-410 -45 -545 -5 -22 -10 -46 -10 -52 0 -10 45 -13 190 -13 l190 0 -5 23 c-29
131 -46 283 -45 402 0 33 -4 82 -9 110 -6 34 -6 54 1 62 8 10 67 13 237 13
124 0 231 -4 236 -8 22 -15 -19 -485 -51 -584 -5 -17 9 -18 191 -18 l197 0 -5
23 c-4 12 -13 63 -21 112 -50 298 -49 687 3 992 10 57 15 105 13 108 -3 3 -91
5 -195 5 l-189 0 5 -23 c29 -112 57 -353 57 -485 l0 -92 -242 2 c-236 3 -243
4 -240 23 1 11 5 63 8 115 3 52 8 120 10 150 3 30 5 62 5 70 1 23 29 203 35
223 5 16 -8 17 -185 17 -112 0 -191 -4 -191 -9z"/>
<path d="M8395 5210 c-3 -5 -1 -10 4 -10 6 0 11 5 11 10 0 6 -2 10 -4 10 -3 0
-8 -4 -11 -10z"/>
<path d="M8355 5170 c-10 -11 -13 -20 -8 -20 13 0 38 29 31 35 -3 3 -13 -4
-23 -15z"/>
<path d="M2923 5155 c-116 -32 -205 -87 -230 -140 -13 -28 -14 -39 -4 -63 16
-38 48 -52 117 -52 109 0 145 39 178 191 8 35 44 50 82 34 58 -25 94 -92 94
-175 0 -51 -18 -140 -28 -140 -3 0 -30 12 -61 28 -47 23 -68 27 -136 26 -67 0
-90 -5 -146 -31 -86 -40 -138 -88 -180 -165 -29 -55 -33 -73 -36 -148 -2 -74
1 -92 23 -138 79 -163 298 -172 421 -18 15 20 30 36 33 36 3 0 7 -23 8 -51 1
-28 5 -55 8 -60 6 -11 357 -12 352 -1 -74 152 -92 230 -84 357 19 294 19 287
-3 347 -25 65 -79 119 -149 150 -60 27 -188 33 -259 13z m145 -365 c31 -30 37
-64 23 -147 -32 -192 -111 -306 -188 -274 -44 18 -67 64 -67 136 0 115 53 228
133 282 42 28 71 29 99 3z"/>
<path d="M4055 5152 c-92 -32 -148 -89 -216 -219 -22 -44 -28 -50 -24 -28 2
17 7 55 10 85 5 55 12 99 21 133 5 16 -8 17 -171 17 l-177 0 7 -27 c23 -91 46
-314 52 -488 8 -257 -9 -475 -53 -692 l-6 -33 176 0 c97 0 176 3 176 8 0 4 -4
22 -9 39 -5 18 -12 63 -16 100 -3 37 -10 106 -15 153 -14 125 -14 126 13 95
65 -76 252 -40 361 69 75 75 158 239 170 336 7 57 7 207 1 254 -13 89 -87 185
-160 205 -54 15 -81 13 -140 -7z m2 -136 c39 -33 53 -84 53 -192 0 -97 -22
-207 -65 -320 -67 -178 -162 -241 -227 -153 -18 23 -20 44 -20 170 -1 219 36
366 116 456 28 33 75 62 103 63 6 0 25 -11 40 -24z"/>
<path d="M5015 5158 c-76 -20 -153 -89 -213 -189 -12 -20 -22 -43 -22 -51 0
-9 -7 -21 -15 -28 -16 -13 -15 -1 15 158 l17 92 -180 0 -179 0 5 -22 c61 -241
73 -734 27 -1038 -11 -74 -22 -144 -23 -155 -2 -19 5 -20 176 -23 167 -2 178
-1 173 15 -22 73 -62 380 -51 391 3 3 16 -5 29 -17 66 -62 209 -41 324 47 44
34 115 134 151 214 91 203 79 447 -27 561 -26 27 -106 58 -146 56 -12 -1 -39
-6 -61 -11z m-17 -143 c43 -36 56 -94 49 -228 -6 -131 -38 -253 -94 -360 -66
-126 -146 -152 -197 -66 -14 24 -18 55 -18 162 -1 210 39 358 120 448 66 74
94 83 140 44z"/>
<path d="M5360 5077 c63 -140 71 -190 70 -467 -1 -186 1 -198 23 -240 28 -55
99 -105 159 -114 140 -21 282 87 330 250 12 41 25 74 28 74 3 0 14 -27 23 -60
42 -141 44 -251 7 -337 -23 -52 -96 -103 -148 -103 -61 0 -118 43 -128 98 -6
33 -8 34 -45 28 -96 -15 -201 -70 -235 -121 -20 -31 -23 -83 -7 -116 21 -44
76 -64 173 -63 142 1 265 49 341 132 92 100 132 244 149 550 18 313 35 420 85
510 l24 42 -174 0 -173 0 25 -52 c37 -77 63 -215 63 -338 0 -165 -38 -287
-112 -357 -88 -85 -166 -65 -183 47 -4 30 -7 60 -5 65 1 6 5 37 7 70 3 33 7
74 9 90 2 17 6 46 8 65 2 19 7 55 10 80 11 87 14 294 5 312 -9 16 -27 18 -184
18 l-174 0 29 -63z"/>
<path d="M8320 5130 c-8 -5 -12 -12 -9 -15 4 -3 12 1 19 10 14 17 11 19 -10 5z"/>
<path d="M8260 5058 l-33 -43 38 37 c22 21 36 40 33 43 -3 3 -20 -13 -38 -37z"/>
<path d="M8080 4859 c0 -5 5 -7 10 -4 6 3 10 8 10 11 0 2 -4 4 -10 4 -5 0 -10
-5 -10 -11z"/>
<path d="M6341 4124 c0 -11 3 -14 6 -6 3 7 2 16 -1 19 -3 4 -6 -2 -5 -13z"/>
<path d="M4253 3730 c-123 -25 -257 -104 -313 -185 -113 -165 -59 -343 126
-415 119 -47 320 -28 458 42 64 33 136 108 167 173 34 70 39 161 14 223 -20
46 -78 108 -125 132 -73 37 -221 50 -327 30z"/>
<path d="M1450 3608 c0 -7 7 -40 14 -73 20 -84 45 -230 50 -295 2 -30 9 -91
15 -135 22 -162 41 -441 47 -672 8 -308 -5 -571 -52 -1007 -3 -28 -8 -71 -10
-96 -2 -25 -18 -118 -34 -207 -17 -89 -30 -165 -30 -168 0 -11 1400 2 1465 14
33 5 82 13 110 17 77 9 205 49 299 93 299 138 486 387 486 646 -1 236 -162
453 -446 597 -60 31 -145 67 -189 81 -81 25 -222 50 -236 41 -4 -2 -10 0 -13
4 -3 5 14 15 37 22 67 19 238 103 308 150 99 67 198 174 244 265 39 76 40 82
39 174 -1 111 -20 174 -82 262 -91 130 -248 215 -502 271 -91 21 -127 22 -807
25 -580 3 -713 2 -713 -9z m1312 -104 c139 -70 237 -263 239 -469 2 -221 -102
-373 -330 -483 -40 -20 -133 -51 -173 -59 -105 -19 -206 -35 -264 -40 l-71 -6
-5 94 c-9 182 15 372 72 557 54 176 182 341 313 407 63 32 78 36 121 30 27 -3
71 -17 98 -31z m-175 -1173 c449 -112 637 -380 527 -751 -37 -126 -162 -322
-260 -409 -109 -96 -229 -138 -361 -126 -176 16 -287 126 -324 319 -5 27 -9
262 -9 524 l0 475 173 -6 c125 -4 195 -11 254 -26z"/>
<path d="M9643 3592 c-6 -4 -13 -42 -17 -84 -13 -152 -58 -270 -128 -340 -53
-53 -99 -76 -186 -92 -55 -10 -67 -16 -67 -31 0 -15 12 -21 65 -30 125 -21
201 -78 254 -188 35 -73 66 -205 66 -282 0 -31 5 -45 17 -49 25 -10 30 1 41
105 21 195 90 322 204 378 35 17 86 34 113 37 94 12 95 47 2 58 -189 24 -297
172 -323 443 -6 69 -18 90 -41 75z m27 -279 c0 -8 13 -43 30 -78 30 -63 135
-175 165 -175 29 0 24 -19 -8 -35 -53 -25 -125 -104 -158 -171 -16 -34 -29
-69 -29 -77 0 -35 -17 -23 -33 24 -27 74 -96 168 -152 206 -51 35 -66 53 -45
53 6 0 31 13 55 30 51 35 116 129 140 200 15 46 35 59 35 23z"/>
<path d="M5694 3353 c-90 -223 -218 -352 -449 -451 -117 -50 -296 -91 -398
-92 -40 0 -46 -7 -50 -55 -2 -25 2 -30 31 -36 49 -10 137 -73 170 -121 65 -96
88 -234 78 -478 -7 -194 -33 -342 -99 -570 -52 -179 -63 -260 -48 -346 26
-141 106 -242 224 -284 34 -12 70 -26 79 -31 22 -11 192 -12 216 0 9 4 49 18
88 31 239 75 449 302 470 507 8 78 -22 160 -74 201 -43 34 -118 62 -167 62
-92 0 -230 -52 -344 -130 l-62 -42 46 -49 c25 -27 61 -80 78 -117 29 -61 32
-76 32 -163 0 -85 -3 -99 -25 -132 -64 -95 -162 -118 -272 -64 -73 36 -150
119 -168 181 -30 109 9 215 123 331 118 120 304 228 472 275 43 11 59 20 56
31 -22 75 -31 239 -32 551 0 191 2 352 6 358 4 6 65 10 162 10 l155 0 -6 23
c-3 12 -6 30 -6 39 0 16 -15 18 -142 20 l-143 3 -3 27 c-5 45 63 430 94 531 4
14 -1 17 -36 17 -38 0 -42 -3 -56 -37z"/>
<path d="M8667 2865 c-305 -50 -528 -178 -614 -353 -37 -75 -38 -78 -38 -191
0 -110 2 -120 32 -183 40 -85 87 -147 160 -211 82 -72 120 -94 378 -222 127
-62 262 -136 300 -164 117 -85 164 -164 165 -272 0 -106 -58 -197 -163 -255
-45 -25 -63 -29 -132 -29 -70 0 -87 4 -133 30 -68 37 -158 133 -171 183 -28
99 -3 203 66 274 l35 36 -48 36 c-64 47 -197 112 -254 125 -143 33 -269 -11
-322 -112 -17 -32 -23 -59 -23 -117 0 -66 4 -84 38 -154 91 -191 310 -328 594
-371 60 -9 122 -21 139 -26 39 -12 156 -12 203 0 20 5 70 14 111 20 104 14
252 64 332 112 95 57 197 169 245 266 l38 78 -1 130 c0 72 -3 137 -6 145 -3 8
-8 24 -12 35 -27 78 -74 150 -135 208 -119 112 -249 179 -572 296 -91 33 -187
69 -211 81 -62 29 -128 87 -144 127 -44 103 22 264 143 350 63 45 104 56 171
48 74 -9 120 -31 144 -69 28 -46 18 -88 -36 -146 -92 -98 -107 -175 -49 -249
63 -79 184 -107 333 -77 105 22 150 45 215 110 63 63 91 133 82 207 -16 135
-129 228 -344 285 -125 32 -378 42 -516 19z"/>
<path d="M6918 2850 c-116 -24 -148 -35 -248 -85 -138 -69 -241 -158 -343
-296 -84 -114 -155 -288 -183 -453 -21 -120 -14 -326 16 -446 60 -245 238
-473 454 -579 74 -37 157 -62 336 -101 118 -26 339 19 477 96 136 76 258 206
305 324 27 70 32 175 10 231 -20 51 -92 116 -146 130 -64 18 -173 5 -254 -29
-80 -33 -222 -119 -222 -134 0 -6 20 -33 45 -60 25 -28 62 -85 82 -127 31 -64
38 -89 41 -160 4 -68 1 -91 -13 -117 -25 -48 -75 -68 -148 -61 -136 12 -270
121 -347 283 -54 113 -70 173 -85 302 -2 24 -7 47 -10 52 -9 14 7 19 106 31
472 57 884 308 970 591 30 99 24 239 -14 321 -54 117 -130 186 -270 242 -163
66 -379 83 -559 45z m324 -99 c15 -17 30 -43 34 -58 3 -16 9 -36 12 -46 10
-25 -6 -247 -23 -317 -3 -14 -8 -36 -11 -50 -23 -110 -149 -316 -251 -410 -72
-65 -182 -124 -260 -138 l-53 -9 -1 81 c-1 44 0 86 1 91 1 6 5 35 7 65 3 30 7
69 9 85 2 17 6 51 9 76 14 125 99 344 184 466 48 71 133 154 186 183 57 30
120 23 157 -19z"/>
<path d="M3904 2793 c35 -119 99 -466 116 -637 16 -153 7 -543 -15 -681 -25
-159 -82 -445 -101 -507 -5 -17 18 -18 385 -18 306 0 391 3 391 13 0 6 -7 36
-15 66 -8 30 -12 58 -9 62 2 4 0 10 -5 14 -5 3 -10 13 -10 23 -1 20 -8 67 -11
67 -2 0 -4 11 -6 25 -1 14 -5 36 -8 50 -3 14 -8 45 -11 70 -3 25 -13 86 -21
135 -8 50 -17 142 -20 205 -3 63 -7 130 -9 149 -6 58 13 341 30 456 10 61 19
124 21 140 4 29 9 58 19 113 3 15 7 36 9 47 2 11 5 20 6 20 1 0 4 10 6 23 2
12 6 32 8 45 2 12 4 22 6 22 1 0 3 9 4 20 2 11 7 37 11 58 l7 37 -392 0 c-368
0 -391 -1 -386 -17z"/>
<path d="M10010 2727 c0 -44 -31 -141 -55 -173 -23 -30 -53 -46 -107 -58 -32
-7 -38 -26 -8 -26 78 0 143 -74 161 -186 7 -41 16 -74 20 -74 4 0 10 21 14 48
17 124 67 196 143 208 48 8 55 21 15 29 -16 3 -44 13 -63 23 -44 21 -85 98
-94 176 -7 55 -26 79 -26 33z"/>
<path d="M4040 714 c-289 -131 -208 -543 106 -544 115 0 207 60 255 164 29 64
26 178 -7 244 -32 64 -90 115 -161 142 -70 26 -126 24 -193 -6z m195 -87 c11
-17 35 -41 52 -52 23 -14 32 -28 33 -47 0 -32 -14 -35 -65 -14 l-35 15 0 -85
c0 -134 -38 -193 -127 -201 -59 -5 -92 11 -116 57 -41 79 6 173 96 195 25 7
27 5 27 -24 0 -26 -4 -31 -24 -31 -32 0 -69 -45 -60 -74 8 -29 54 -66 83 -66
14 0 33 7 43 17 16 14 18 34 18 180 l0 163 28 0 c19 -1 33 -10 47 -33z"/>
<path d="M198 714 c-53 -28 -58 -54 -58 -275 l0 -201 34 -34 34 -34 217 0 217
0 29 31 29 31 0 212 c0 295 9 286 -282 286 -151 -1 -199 -4 -220 -16z m366
-69 c56 -27 66 -57 66 -203 0 -116 -2 -132 -21 -156 -33 -42 -53 -47 -184 -47
-195 0 -215 19 -215 213 0 180 27 207 213 208 77 0 118 -4 141 -15z"/>
<path d="M304 611 c-45 -19 -54 -48 -54 -168 0 -104 2 -114 24 -140 24 -28 25
-28 144 -28 114 0 122 1 146 24 25 24 26 28 26 147 0 168 0 168 -152 171 -62
2 -123 -2 -134 -6z m240 -27 c9 -3 16 -12 16 -18 0 -18 -21 -35 -36 -29 -15 5
-19 35 -7 46 8 8 8 8 27 1z m-50 -57 c23 -18 30 -33 33 -73 5 -44 2 -52 -23
-77 -53 -53 -131 -47 -172 13 -30 44 -24 91 14 132 36 37 104 40 148 5z"/>
<path d="M377 498 c-27 -22 -31 -61 -7 -91 56 -70 156 7 104 81 -17 25 -69 30
-97 10z"/>
<path d="M7683 714 c-60 -22 -128 -86 -157 -149 -64 -135 -4 -305 132 -371 57
-28 178 -31 234 -6 103 45 178 156 178 261 0 100 -66 203 -163 253 -55 28
-165 34 -224 12z m165 -118 c100 -52 126 -172 54 -249 -44 -47 -78 -60 -136
-53 -70 9 -77 9 -113 1 l-32 -7 10 36 c7 25 6 49 -1 77 -14 50 -6 103 22 141
41 59 137 85 196 54z"/>
<path d="M7735 576 c-17 -7 -44 -28 -59 -46 -25 -31 -27 -38 -22 -89 4 -31 7
-70 7 -88 0 -24 4 -30 16 -26 8 3 39 0 68 -7 47 -11 57 -11 91 6 98 49 112
172 26 232 -38 28 -90 35 -127 18z m10 -88 c0 -50 27 -78 73 -75 28 1 37 -2
40 -16 9 -43 -65 -32 -114 17 -38 38 -52 79 -34 101 20 24 35 12 35 -27z"/>
<path d="M770 445 c0 -138 1 -145 20 -145 18 0 20 7 20 69 0 79 15 104 59 99
25 -3 26 -5 29 -85 3 -75 5 -83 22 -83 18 0 20 7 20 81 0 44 -4 89 -10 99 -14
26 -56 33 -91 16 l-29 -14 0 54 c0 47 -2 54 -20 54 -19 0 -20 -7 -20 -145z"/>
<path d="M1872 448 l3 -143 58 -3 c52 -3 60 0 87 27 51 50 38 147 -23 172 -25
11 -34 10 -58 -4 l-29 -16 0 54 c0 49 -2 55 -20 55 -20 0 -20 -5 -18 -142z
m128 3 c29 -56 -1 -121 -56 -121 l-34 0 0 51 c0 66 13 89 50 89 19 0 33 -7 40
-19z"/>
<path d="M2107 583 c-16 -15 -6 -33 18 -33 18 0 25 5 25 20 0 20 -28 28 -43
13z"/>
<path d="M2852 448 l3 -143 58 -3 c52 -3 60 0 87 27 51 50 38 147 -23 172 -25
11 -34 10 -58 -4 l-29 -16 0 54 c0 49 -2 55 -20 55 -20 0 -20 -5 -18 -142z
m128 3 c29 -56 -1 -121 -56 -121 l-34 0 0 51 c0 66 13 89 50 89 19 0 33 -7 40
-19z"/>
<path d="M3080 464 c0 -69 5 -134 10 -145 7 -12 21 -19 40 -19 34 0 42 25 10
33 -19 5 -20 14 -20 131 0 119 -1 126 -20 126 -19 0 -20 -7 -20 -126z"/>
<path d="M3207 583 c-16 -15 -6 -33 18 -33 18 0 25 5 25 20 0 20 -28 28 -43
13z"/>
<path d="M4490 445 c0 -138 1 -145 20 -145 18 0 20 7 20 69 0 79 15 104 59 99
25 -3 26 -5 29 -85 3 -75 5 -83 22 -83 18 0 20 7 20 81 0 44 -4 89 -10 99 -14
26 -56 33 -91 16 l-29 -14 0 54 c0 47 -2 54 -20 54 -19 0 -20 -7 -20 -145z"/>
<path d="M5592 448 l3 -143 58 -3 c52 -3 60 0 87 27 51 50 38 147 -23 172 -25
11 -34 10 -58 -4 l-29 -16 0 54 c0 49 -2 55 -20 55 -20 0 -20 -5 -18 -142z
m128 3 c29 -56 -1 -121 -56 -121 l-34 0 0 51 c0 66 13 89 50 89 19 0 33 -7 40
-19z"/>
<path d="M5827 583 c-16 -15 -6 -33 18 -33 18 0 25 5 25 20 0 20 -28 28 -43
13z"/>
<path d="M6482 448 l3 -143 58 -3 c52 -3 60 0 87 27 51 50 38 147 -23 172 -25
11 -34 10 -58 -4 l-29 -16 0 54 c0 49 -2 55 -20 55 -20 0 -20 -5 -18 -142z
m128 3 c29 -56 -1 -121 -56 -121 l-34 0 0 51 c0 66 13 89 50 89 19 0 33 -7 40
-19z"/>
<path d="M6710 464 c0 -69 5 -134 10 -145 7 -12 21 -19 40 -19 34 0 42 25 10
33 -19 5 -20 14 -20 131 0 119 -1 126 -20 126 -19 0 -20 -7 -20 -126z"/>
<path d="M6837 583 c-16 -15 -6 -33 18 -33 18 0 25 5 25 20 0 20 -28 28 -43
13z"/>
<path d="M8157 559 c-29 -17 -47 -65 -47 -129 0 -98 32 -140 105 -140 49 0 81
34 90 94 17 110 -21 186 -92 186 -21 0 -46 -5 -56 -11z m89 -40 c29 -32 27
-150 -3 -180 -50 -51 -100 11 -91 112 8 79 54 112 94 68z"/>
<path d="M8392 554 c-26 -18 -30 -69 -6 -95 14 -15 13 -19 -10 -42 -55 -55
-15 -127 71 -127 67 0 93 20 93 71 0 29 -6 45 -25 61 -24 21 -24 22 -5 35 28
20 27 77 -2 97 -29 20 -87 20 -116 0z m98 -33 c15 -29 -18 -66 -53 -57 -30 7
-44 40 -27 61 18 22 67 19 80 -4z m-8 -113 c24 -20 28 -44 12 -67 -27 -38
-104 -19 -104 25 0 20 37 54 58 54 10 0 25 -6 34 -12z"/>
<path d="M8622 554 c-26 -18 -30 -69 -6 -95 14 -15 13 -19 -10 -42 -55 -55
-15 -127 71 -127 67 0 93 20 93 71 0 29 -6 45 -25 61 -24 21 -24 22 -5 35 28
20 27 77 -2 97 -29 20 -87 20 -116 0z m98 -33 c15 -29 -18 -66 -53 -57 -30 7
-44 40 -27 61 18 22 67 19 80 -4z m-8 -113 c24 -20 28 -44 12 -67 -27 -38
-104 -19 -104 25 0 20 37 54 58 54 10 0 25 -6 34 -12z"/>
<path d="M8888 545 c-33 -17 -46 -30 -42 -40 5 -13 9 -13 35 1 l29 15 0 -101
0 -100 -35 0 c-24 0 -35 -5 -35 -15 0 -12 16 -15 85 -15 69 0 85 3 85 15 0 10
-10 15 -30 15 l-30 0 0 125 c0 69 -3 125 -7 125 -5 -1 -29 -12 -55 -25z"/>
<path d="M9070 551 c0 -17 8 -20 50 -23 l50 -3 -30 -45 -30 -45 33 -6 c47 -8
57 -16 57 -49 0 -40 -36 -63 -92 -58 -33 2 -43 0 -43 -12 0 -11 13 -16 44 -18
58 -4 86 3 111 30 37 40 16 128 -31 128 -25 0 -24 7 11 60 16 25 30 48 30 53
0 4 -36 7 -80 7 -73 0 -80 -2 -80 -19z"/>
<path d="M9310 551 c0 -17 8 -20 50 -23 l50 -3 -30 -45 -30 -45 33 -6 c47 -8
57 -16 57 -49 0 -40 -36 -63 -92 -58 -33 2 -43 0 -43 -12 0 -11 13 -16 44 -18
58 -4 86 3 111 30 37 40 16 128 -31 128 -25 0 -24 7 11 60 16 25 30 48 30 53
0 4 -36 7 -80 7 -73 0 -80 -2 -80 -19z"/>
<path d="M9582 465 c-28 -58 -52 -107 -52 -110 0 -3 29 -5 65 -5 l65 0 0 -30
c0 -23 4 -30 20 -30 16 0 20 7 20 30 0 20 5 30 15 30 8 0 15 7 15 15 0 8 -7
15 -15 15 -10 0 -15 11 -15 35 0 28 -4 35 -20 35 -16 0 -20 -7 -20 -35 0 -34
-1 -35 -40 -35 l-40 0 45 90 c25 49 45 92 45 95 0 3 -8 5 -18 5 -12 0 -33 -31
-70 -105z"/>
<path d="M9807 563 c-4 -3 -7 -35 -7 -70 l0 -63 43 0 c50 0 67 -13 67 -52 0
-39 -38 -62 -90 -55 -35 4 -40 2 -40 -14 0 -41 147 -17 164 26 3 9 6 32 6 51
0 45 -29 74 -75 74 -34 0 -35 1 -35 40 l0 40 50 0 c38 0 50 4 50 15 0 12 -14
15 -63 15 -35 0 -67 -3 -70 -7z"/>
<path d="M10047 563 c-4 -3 -7 -35 -7 -70 l0 -63 43 0 c50 0 67 -13 67 -52 0
-39 -38 -62 -90 -55 -35 4 -40 2 -40 -14 0 -41 147 -17 164 26 3 9 6 32 6 51
0 45 -29 74 -75 74 -34 0 -35 1 -35 40 l0 40 50 0 c38 0 50 4 50 15 0 12 -14
15 -63 15 -35 0 -67 -3 -70 -7z"/>
<path d="M10287 559 c-29 -17 -47 -65 -47 -129 0 -98 32 -140 105 -140 49 0
81 34 90 94 17 110 -21 186 -92 186 -21 0 -46 -5 -56 -11z m89 -40 c29 -32 27
-150 -3 -180 -50 -51 -100 11 -91 112 8 79 54 112 94 68z"/>
<path d="M10517 563 c-4 -3 -7 -35 -7 -70 l0 -63 43 0 c50 0 67 -13 67 -52 0
-39 -38 -62 -90 -55 -35 4 -40 2 -40 -14 0 -41 147 -17 164 26 3 9 6 32 6 51
0 45 -29 74 -75 74 -34 0 -35 1 -35 40 l0 40 50 0 c38 0 50 4 50 15 0 12 -14
15 -63 15 -35 0 -67 -3 -70 -7z"/>
<path d="M2233 518 c-37 -38 -40 -48 -18 -48 12 0 15 -14 15 -66 0 -84 11
-104 55 -104 40 0 50 26 13 32 -21 3 -23 9 -26 71 -3 66 -3 67 23 67 16 0 25
6 25 15 0 9 -9 15 -24 15 -19 0 -25 6 -28 26 l-3 25 -32 -33z"/>
<path d="M3333 518 c-37 -38 -40 -48 -18 -48 12 0 15 -14 15 -66 0 -84 11
-104 55 -104 40 0 50 26 13 32 -21 3 -23 9 -26 71 -3 66 -3 67 23 67 16 0 25
6 25 15 0 9 -9 15 -24 15 -19 0 -25 6 -28 26 l-3 25 -32 -33z"/>
<path d="M5953 518 c-37 -38 -40 -48 -18 -48 12 0 15 -14 15 -66 0 -84 11
-104 55 -104 40 0 50 26 13 32 -21 3 -23 9 -26 71 -3 66 -3 67 23 67 16 0 25
6 25 15 0 9 -9 15 -24 15 -19 0 -25 6 -28 26 l-3 25 -32 -33z"/>
<path d="M6953 518 c-37 -38 -40 -48 -18 -48 12 0 15 -14 15 -66 0 -84 11
-104 55 -104 40 0 50 26 13 32 -21 3 -23 9 -26 71 -3 66 -3 67 23 67 16 0 25
6 25 15 0 9 -9 15 -24 15 -19 0 -25 6 -28 26 l-3 25 -32 -33z"/>
<path d="M1018 504 c-10 -3 -18 -12 -18 -21 0 -11 7 -14 27 -10 34 6 73 -8 73
-26 0 -9 -15 -16 -41 -20 -50 -7 -79 -31 -79 -67 0 -44 29 -62 96 -58 l59 3 0
82 c0 61 -4 86 -16 98 -16 17 -72 27 -101 19z m80 -142 c3 -33 3 -33 -35 -30
-44 3 -58 32 -27 55 32 23 59 12 62 -25z"/>
<path d="M1262 494 c-12 -8 -22 -10 -22 -5 0 6 -9 11 -20 11 -19 0 -20 -7 -20
-145 0 -138 1 -145 20 -145 17 0 20 7 20 45 l0 45 41 0 c57 0 99 42 99 99 0
52 -16 86 -47 100 -32 15 -44 14 -71 -5z m68 -43 c29 -56 -1 -121 -56 -121
l-34 0 0 51 c0 66 13 89 50 89 19 0 33 -7 40 -19z"/>
<path d="M1492 494 c-12 -8 -22 -10 -22 -5 0 6 -9 11 -20 11 -19 0 -20 -7 -20
-145 0 -138 1 -145 20 -145 17 0 20 7 20 45 l0 45 41 0 c57 0 99 42 99 99 0
52 -16 86 -47 100 -32 15 -44 14 -71 -5z m68 -43 c29 -56 -1 -121 -56 -121
l-34 0 0 51 c0 66 13 89 50 89 19 0 33 -7 40 -19z"/>
<path d="M2401 496 c-62 -35 -69 -140 -12 -183 16 -13 113 -18 124 -7 16 16
-6 29 -44 26 -28 -3 -46 1 -59 13 -38 34 -25 45 50 45 l70 0 0 29 c0 62 -76
107 -129 77z m71 -33 c33 -29 22 -43 -32 -43 -54 0 -61 9 -30 40 24 24 38 25
62 3z"/>
<path d="M2610 497 c-19 -10 -25 -20 -25 -47 0 -31 4 -37 43 -55 32 -15 42
-25 40 -40 -2 -16 -12 -21 -50 -23 -34 -2 -48 -7 -48 -18 0 -20 89 -19 118 2
36 25 27 74 -18 96 -57 28 -66 39 -44 55 11 8 30 11 46 7 35 -7 40 20 6 30
-32 8 -40 7 -68 -7z"/>
<path d="M3488 504 c-10 -3 -18 -12 -18 -21 0 -11 7 -14 27 -10 34 6 73 -8 73
-26 0 -9 -15 -16 -41 -20 -50 -7 -79 -31 -79 -67 0 -44 29 -62 96 -58 l59 3 0
82 c0 61 -4 86 -16 98 -16 17 -72 27 -101 19z m80 -142 c3 -33 3 -33 -35 -30
-44 3 -58 32 -27 55 32 23 59 12 62 -25z"/>
<path d="M4748 504 c-10 -3 -18 -12 -18 -21 0 -11 7 -14 27 -10 34 6 73 -8 73
-26 0 -9 -15 -16 -41 -20 -50 -7 -79 -31 -79 -67 0 -44 29 -62 96 -58 l59 3 0
82 c0 61 -4 86 -16 98 -16 17 -72 27 -101 19z m80 -142 c3 -33 3 -33 -35 -30
-44 3 -58 32 -27 55 32 23 59 12 62 -25z"/>
<path d="M4982 494 c-12 -8 -22 -10 -22 -5 0 6 -9 11 -20 11 -19 0 -20 -7 -20
-145 0 -138 1 -145 20 -145 17 0 20 7 20 45 l0 45 41 0 c57 0 99 42 99 99 0
52 -16 86 -47 100 -32 15 -44 14 -71 -5z m68 -43 c29 -56 -1 -121 -56 -121
l-34 0 0 51 c0 66 13 89 50 89 19 0 33 -7 40 -19z"/>
<path d="M5212 494 c-12 -8 -22 -10 -22 -5 0 6 -9 11 -20 11 -19 0 -20 -7 -20
-145 0 -138 1 -145 20 -145 17 0 20 7 20 45 l0 45 41 0 c57 0 99 42 99 99 0
52 -16 86 -47 100 -32 15 -44 14 -71 -5z m68 -43 c29 -56 -1 -121 -56 -121
l-34 0 0 51 c0 66 13 89 50 89 19 0 33 -7 40 -19z"/>
<path d="M6121 496 c-62 -35 -69 -140 -12 -183 16 -13 113 -18 124 -7 16 16
-6 29 -44 26 -28 -3 -46 1 -59 13 -38 34 -25 45 50 45 l70 0 0 29 c0 62 -76
107 -129 77z m71 -33 c33 -29 22 -43 -32 -43 -54 0 -61 9 -30 40 24 24 38 25
62 3z"/>
<path d="M6330 497 c-19 -10 -25 -20 -25 -47 0 -31 4 -37 43 -55 32 -15 42
-25 40 -40 -2 -16 -12 -21 -50 -23 -34 -2 -48 -7 -48 -18 0 -20 89 -19 118 2
36 25 27 74 -18 96 -57 28 -66 39 -44 55 11 8 30 11 46 7 35 -7 40 20 6 30
-32 8 -40 7 -68 -7z"/>
<path d="M7108 504 c-10 -3 -18 -12 -18 -21 0 -11 7 -14 27 -10 34 6 73 -8 73
-26 0 -9 -15 -16 -41 -20 -50 -7 -79 -31 -79 -67 0 -44 29 -62 96 -58 l59 3 0
82 c0 61 -4 86 -16 98 -16 17 -72 27 -101 19z m80 -142 c3 -33 3 -33 -35 -30
-44 3 -58 32 -27 55 32 23 59 12 62 -25z"/>
<path d="M1640 493 c0 -5 14 -50 31 -100 20 -62 36 -93 45 -93 11 0 13 -6 8
-22 -10 -33 -24 -48 -45 -48 -11 0 -19 -7 -19 -15 0 -22 46 -19 69 4 11 11 36
72 56 136 20 64 38 122 42 130 3 10 -2 15 -15 15 -18 0 -25 -15 -49 -91 -30
-101 -28 -102 -63 19 -17 58 -25 72 -40 72 -11 0 -20 -3 -20 -7z"/>
<path d="M2090 485 c0 -8 5 -15 10 -15 6 0 10 -35 10 -85 0 -78 2 -85 20 -85
19 0 20 7 20 100 l0 100 -30 0 c-20 0 -30 -5 -30 -15z"/>
<path d="M3190 485 c0 -8 5 -15 10 -15 6 0 10 -35 10 -85 0 -78 2 -85 20 -85
19 0 20 7 20 100 l0 100 -30 0 c-20 0 -30 -5 -30 -15z"/>
<path d="M3660 400 c0 -93 1 -100 20 -100 18 0 20 7 20 63 0 69 18 107 51 107
10 0 19 7 19 15 0 18 -41 20 -58 3 -9 -9 -12 -9 -12 0 0 7 -9 12 -20 12 -19 0
-20 -7 -20 -100z"/>
<path d="M5360 493 c0 -5 14 -50 31 -100 20 -62 36 -93 45 -93 11 0 13 -6 8
-22 -10 -33 -24 -48 -45 -48 -11 0 -19 -7 -19 -15 0 -22 46 -19 69 4 11 11 36
72 56 136 20 64 38 122 42 130 3 10 -2 15 -15 15 -18 0 -25 -15 -49 -91 -30
-101 -28 -102 -63 19 -17 58 -25 72 -40 72 -11 0 -20 -3 -20 -7z"/>
<path d="M5810 485 c0 -8 5 -15 10 -15 6 0 10 -35 10 -85 0 -78 2 -85 20 -85
19 0 20 7 20 100 l0 100 -30 0 c-20 0 -30 -5 -30 -15z"/>
<path d="M6820 485 c0 -8 5 -15 10 -15 6 0 10 -35 10 -85 0 -78 2 -85 20 -85
19 0 20 7 20 100 l0 100 -30 0 c-20 0 -30 -5 -30 -15z"/>
<path d="M7290 400 c0 -93 1 -100 20 -100 18 0 20 7 20 63 0 69 18 107 51 107
10 0 19 7 19 15 0 18 -41 20 -58 3 -9 -9 -12 -9 -12 0 0 7 -9 12 -20 12 -19 0
-20 -7 -20 -100z"/>
<path d="M2757 334 c-11 -11 5 -34 24 -34 12 0 19 7 19 20 0 19 -28 28 -43 14z"/>
</g>
</svg>
